#!OML:ASF I:\Actors\actors\Patient Classification 2\Patient 1\Session 1\actor1.ASF
:FULLY-SPECIFIED
:DEGREES
537
root -0.350627 18.5878 4.78032 2.43217 -17.6095 2.04891
lowerback 38.3086 -2.5202 4.4716
upperback 16.7535 -1.81935 4.1745
thorax -0.281629 -1.04943 2.65424
lowerneck -7.15595 -6.76544 -6.36687
upperneck 36.317 -8.79897 0.157683
head 13.8386 -4.57905 -0.00408379
rclavicle -1.59028e-014 1.82882e-014
rhumerus -39.3922 76.224 -122.926
rradius 142.5
rwrist 25.3434
rhand -39.7369 -48.517
rfingers 7.12502
rthumb -12.7141 -78.11
lclavicle -1.59028e-014 1.82882e-014
lhumerus -1.52738 -71.1573 99.0646
lradius 137.444
lwrist 22.6678
lhand -42.8906 -48.3356
lfingers 7.12502
lthumb -15.753 -18.9567
rfemur -11.1787 10.6567 10.1767
rtibia 17.9125
rfoot -15.3954 -7.09615
rtoes -13.7817
lfemur -12.9288 10.9153 -17.6451
ltibia 29.6617
lfoot -20.5072 11.7221
ltoes -55.5229
538
root -0.352498 18.5867 4.76747 2.38341 -17.3192 2.04653
lowerback 38.2454 -2.40149 4.54025
upperback 16.7774 -1.64747 4.26228
thorax -0.238051 -0.961854 2.65298
lowerneck -7.72114 -6.23229 -5.49139
upperneck 36.6964 -8.35374 0.573012
head 14.0812 -4.22184 0.0463609
rclavicle 6.36111e-015 5.56597e-014
rhumerus -39.0041 75.9706 -122.413
rradius 142.226
rwrist 25.4567
rhand -40.3195 -48.4193
rfingers 7.12502
rthumb -13.2757 -77.9765
lclavicle 6.36111e-015 5.56597e-014
lhumerus -1.46552 -71.0602 98.9381
lradius 137.569
lwrist 21.837
lhand -42.0168 -47.3911
lfingers 7.12502
lthumb -14.9114 -17.9478
rfemur -11.0626 10.5885 10.2006
rtibia 17.8781
rfoot -15.5182 -7.21019
rtoes -13.709
lfemur -12.9509 10.8671 -17.6228
ltibia 29.6371
lfoot -20.3314 11.674
ltoes -55.7382
539
root -0.355683 18.587 4.75335 2.33905 -17.0467 2.04566
lowerback 38.2095 -2.28568 4.57228
upperback 16.7777 -1.4879 4.34297
thorax -0.229158 -0.88254 2.66841
lowerneck -8.48296 -5.54665 -4.96212
upperneck 37.5042 -7.88482 1.64847
head 14.6383 -3.81215 0.41737
rclavicle -1.43125e-014 2.46493e-014
rhumerus -38.2561 75.7125 -121.704
rradius 141.767
rwrist 25.613
rhand -40.6745 -48.4852
rfingers 7.12502
rthumb -13.6179 -78.0198
lclavicle -1.43125e-014 2.46493e-014
lhumerus -1.58159 -71.0168 98.9293
lradius 137.808
lwrist 21.5959
lhand -41.0467 -46.3211
lfingers 7.12502
lthumb -13.9766 -16.8109
rfemur -10.9609 10.5051 10.2288
rtibia 17.836
rfoot -15.5816 -7.35861
rtoes -14.0124
lfemur -12.9629 10.8201 -17.5885
ltibia 29.6043
lfoot -20.2087 11.5197
ltoes -55.7581
540
root -0.358582 18.5873 4.73836 2.29722 -16.731 2.0397
lowerback 38.152 -2.18751 4.64028
upperback 16.7773 -1.33795 4.43319
thorax -0.213628 -0.805775 2.67801
lowerneck -8.68452 -5.15746 -3.7062
upperneck 37.4061 -7.56089 1.53128
head 14.5429 -3.52287 0.195628
rclavicle 3.02153e-014 1.66979e-014
rhumerus -36.7648 75.4725 -120.368
rradius 141.169
rwrist 25.8056
rhand -40.8063 -48.8208
rfingers 7.12502
rthumb -13.745 -78.3468
lclavicle 3.02153e-014 1.66979e-014
lhumerus -1.89223 -71.3757 99.0773
lradius 138.123
lwrist 21.9772
lhand -40.3044 -45.3732
lfingers 7.12502
lthumb -13.2612 -15.8151
rfemur -10.853 10.362 10.2638
rtibia 17.7948
rfoot -15.6855 -7.48464
rtoes -14.0356
lfemur -12.9697 10.6621 -17.5534
ltibia 29.5574
lfoot -20.1372 11.3319
ltoes -55.6441
541
root -0.359983 18.5868 4.72428 2.22808 -16.3939 2.06322
lowerback 38.1212 -2.09013 4.7218
upperback 16.7765 -1.18199 4.52205
thorax -0.206764 -0.724892 2.67806
lowerneck -8.84716 -5.44809 -2.19446
upperneck 37.1468 -8.06747 0.845442
head 14.3474 -3.61844 -0.417439
rclavicle -2.22639e-014 -2.94201e-014
rhumerus -35.549 75.1669 -119.178
rradius 140.718
rwrist 26.0176
rhand -41.0111 -49.0724
rfingers 7.12502
rthumb -13.9423 -78.5849
lclavicle -2.22639e-014 -2.94201e-014
lhumerus -2.21952 -71.7952 99.3021
lradius 138.378
lwrist 22.1214
lhand -39.6804 -44.2558
lfingers 7.12502
lthumb -12.6597 -14.6595
rfemur -10.7166 10.2299 10.2621
rtibia 17.7595
rfoot -15.8478 -7.57356
rtoes -13.5498
lfemur -12.9549 10.4562 -17.559
ltibia 29.5022
lfoot -20.0886 11.2103
ltoes -55.576
542
root -0.362152 18.5869 4.71059 2.14769 -16.1063 2.09952
lowerback 38.1 -1.96276 4.75474
upperback 16.7803 -1.00657 4.60587
thorax -0.199135 -0.637472 2.69179
lowerneck -9.17339 -5.03596 -1.14593
upperneck 37.2051 -7.76918 0.968717
head 14.3936 -3.33399 -0.518647
rclavicle 1.74931e-014 -2.8625e-014
rhumerus -34.8338 74.8781 -118.377
rradius 140.47
rwrist 26.3178
rhand -41.2873 -49.2654
rfingers 7.12502
rthumb -14.2085 -78.7595
lclavicle 1.74931e-014 -2.8625e-014
lhumerus -2.29066 -71.9441 99.3158
lradius 138.612
lwrist 22.0446
lhand -38.9889 -43.0794
lfingers 7.12502
lthumb -11.9929 -13.443
rfemur -10.5917 10.1175 10.2518
rtibia 17.7382
rfoot -15.9485 -7.65856
rtoes -13.2284
lfemur -12.9314 10.3504 -17.5716
ltibia 29.4448
lfoot -19.9887 11.0977
ltoes -55.5873
543
root -0.364552 18.5871 4.69621 2.05802 -15.7966 2.13659
lowerback 38.121 -1.87848 4.79399
upperback 16.753 -0.875667 4.67573
thorax -0.237936 -0.571195 2.70324
lowerneck -9.40037 -4.63793 -0.28211
upperneck 37.2302 -7.52127 1.28062
head 14.4298 -3.07358 -0.515536
rclavicle -2.38542e-014 -6.99722e-014
rhumerus -34.1525 74.6778 -117.705
rradius 140.322
rwrist 26.672
rhand -41.4528 -49.5065
rfingers 7.12502
rthumb -14.368 -78.9893
lclavicle -2.38542e-014 -6.99722e-014
lhumerus -2.18551 -71.88 99.13
lradius 138.893
lwrist 22.1488
lhand -38.0766 -41.8946
lfingers 7.12502
lthumb -11.1132 -12.2089
rfemur -10.463 9.96685 10.2472
rtibia 17.7346
rfoot -16.0335 -7.75366
rtoes -13.0519
lfemur -12.9107 10.2207 -17.584
ltibia 29.3883
lfoot -19.8561 11.0161
ltoes -55.6853
544
root -0.3668 18.5864 4.68233 1.96108 -15.459 2.19106
lowerback 38.114 -1.82849 4.82852
upperback 16.7432 -0.791587 4.72941
thorax -0.247854 -0.526779 2.71453
lowerneck -9.51603 -4.28951 0.472529
upperneck 37.1665 -7.33371 1.64639
head 14.4121 -2.84987 -0.475467
rclavicle 2.70347e-014 -4.69132e-014
rhumerus -33.2539 74.4542 -116.875
rradius 140.24
rwrist 26.8883
rhand -41.6124 -49.54
rfingers 7.12502
rthumb -14.5217 -79.0117
lclavicle 2.70347e-014 -4.69132e-014
lhumerus -1.86007 -71.949 98.6882
lradius 139.005
lwrist 21.4759
lhand -37.8456 -40.667
lfingers 7.12502
lthumb -10.8903 -10.9694
rfemur -10.322 9.79539 10.2246
rtibia 17.7341
rfoot -16.1132 -7.86785
rtoes -13.1122
lfemur -12.8943 10.026 -17.6224
ltibia 29.3419
lfoot -19.7527 10.9602
ltoes -55.8391
545
root -0.369116 18.5856 4.66964 1.88824 -15.155 2.20785
lowerback 37.9956 -1.76605 4.8669
upperback 16.7995 -0.706411 4.78358
thorax -0.150632 -0.480805 2.72134
lowerneck -9.56474 -3.93616 1.2455
upperneck 36.9319 -7.12504 2.00336
head 14.3006 -2.62218 -0.435667
rclavicle 2.22639e-014 6.75868e-014
rhumerus -32.5047 74.3797 -116.187
rradius 140.032
rwrist 27.1597
rhand -41.86 -49.6518
rfingers 7.12502
rthumb -14.7603 -79.1062
lclavicle 2.22639e-014 6.75868e-014
lhumerus -1.31579 -71.8462 98.0722
lradius 139.17
lwrist 21.2552
lhand -37.9053 -39.9137
lfingers 7.12502
lthumb -10.9479 -10.2191
rfemur -10.2016 9.63398 10.2386
rtibia 17.7297
rfoot -16.1574 -7.9942
rtoes -13.4828
lfemur -12.8919 9.90665 -17.6231
ltibia 29.3077
lfoot -19.6352 10.8506
ltoes -55.9675
